<svg width="24" height="22" viewBox="0 0 24 22" fill="none" xmlns="http://www.w3.org/2000/svg">
<path d="M5.24244 21.6319H1.62166C1.30156 21.6319 0.994577 21.5165 0.768234 21.3111C0.541892 21.1056 0.414734 20.827 0.414734 20.5365V11.7738C0.414734 11.4833 0.541892 11.2047 0.768234 10.9992C0.994577 10.7938 1.30156 10.6784 1.62166 10.6784H5.24244C5.56253 10.6784 5.86952 10.7938 6.09586 10.9992C6.3222 11.2047 6.44936 11.4833 6.44936 11.7738V20.5365C6.44936 20.827 6.3222 21.1056 6.09586 21.3111C5.86952 21.5165 5.56253 21.6319 5.24244 21.6319ZM13.6909 21.6319H10.0701C9.75004 21.6319 9.44305 21.5165 9.21671 21.3111C8.99037 21.1056 8.86321 20.827 8.86321 20.5365V1.91566C8.86321 1.62515 8.99037 1.34655 9.21671 1.14113C9.44305 0.935715 9.75004 0.820313 10.0701 0.820312H13.6909C14.011 0.820313 14.318 0.935715 14.5443 1.14113C14.7707 1.34655 14.8978 1.62515 14.8978 1.91566V20.5365C14.8978 20.827 14.7707 21.1056 14.5443 21.3111C14.318 21.5165 14.011 21.6319 13.6909 21.6319ZM22.1394 21.6319H18.5186C18.1985 21.6319 17.8915 21.5165 17.6652 21.3111C17.4388 21.1056 17.3117 20.827 17.3117 20.5365V8.48773C17.3117 8.19723 17.4388 7.91862 17.6652 7.71321C17.8915 7.50779 18.1985 7.39239 18.5186 7.39239H22.1394C22.4595 7.39239 22.7665 7.50779 22.9928 7.71321C23.2192 7.91862 23.3463 8.19723 23.3463 8.48773V20.5365C23.3463 20.827 23.2192 21.1056 22.9928 21.3111C22.7665 21.5165 22.4595 21.6319 22.1394 21.6319Z" fill="#D0D2D3"/>
</svg>
