<svg width="25" height="24" viewBox="0 0 25 24" fill="none" xmlns="http://www.w3.org/2000/svg">
<path d="M12.5 0.624023C10.1637 0.624023 7.87987 1.29116 5.93732 2.54106C3.99476 3.79096 2.48072 5.56749 1.58666 7.646C0.692603 9.72451 0.458676 12.0116 0.914464 14.2182C1.37025 16.4247 2.49528 18.4515 4.14729 20.0424C5.7993 21.6332 7.90409 22.7165 10.1955 23.1555C12.4869 23.5944 14.862 23.3691 17.0204 22.5082C19.1789 21.6472 21.0238 20.1892 22.3217 18.3186C23.6197 16.448 24.3125 14.2488 24.3125 11.999C24.3089 8.98324 23.0632 6.09196 20.8487 3.95948C18.6342 1.827 15.6318 0.627464 12.5 0.624023ZM12.5 21.749C9.81467 21.749 7.23934 20.7218 5.34053 18.8933C3.44173 17.0648 2.37499 14.5849 2.37499 11.999C2.37499 9.41316 3.44173 6.93321 5.34053 5.10473C7.23934 3.27625 9.81467 2.24902 12.5 2.24902V11.999L19.6558 18.8898C18.7174 19.7968 17.6021 20.5162 16.3741 21.0069C15.1461 21.4975 13.8295 21.7497 12.5 21.749Z" fill="#D0D2D3"/>
</svg>
