<svg width="17" height="17" viewBox="0 0 17 17" fill="none" xmlns="http://www.w3.org/2000/svg">
<g clip-path="url(#clip0)">
<path d="M15.2757 15.8595H5.18655C4.90279 15.8595 4.6637 15.7621 4.46927 15.5675C4.27484 15.3729 4.17763 15.1336 4.17763 14.8496V10.8099C4.17763 10.5364 4.27484 10.2997 4.46927 10.0999C4.6637 9.89999 4.90279 9.80005 5.18655 9.80005H15.2757C15.549 9.80005 15.7854 9.89999 15.9851 10.0999C16.1848 10.2997 16.2846 10.5364 16.2846 10.8099V14.8496C16.2846 15.1336 16.1848 15.3729 15.9851 15.5675C15.7854 15.7621 15.549 15.8595 15.2757 15.8595ZM11.24 7.78024H5.18655C4.90279 7.78024 4.6637 7.68294 4.46927 7.48832C4.27484 7.2937 4.17763 7.05438 4.17763 6.77034V2.73074C4.17763 2.45722 4.27484 2.22053 4.46927 2.02065C4.6637 1.82078 4.90279 1.72084 5.18655 1.72084H11.24C11.5133 1.72084 11.7498 1.82078 11.9494 2.02065C12.1491 2.22053 12.249 2.45722 12.249 2.73074V6.77034C12.249 7.05438 12.1491 7.2937 11.9494 7.48832C11.7498 7.68294 11.5133 7.78024 11.24 7.78024ZM10.2311 4.24559C10.2311 4.10883 10.1812 3.99049 10.0814 3.89055C9.98153 3.79061 9.86329 3.74064 9.72667 3.74064H6.69992C6.5633 3.74064 6.44506 3.79061 6.34522 3.89055C6.24538 3.99049 6.19546 4.10883 6.19546 4.24559V5.25549C6.19546 5.39225 6.24538 5.5106 6.34522 5.61054C6.44506 5.71047 6.5633 5.76044 6.69992 5.76044H9.72667C9.86329 5.76044 9.98153 5.71047 10.0814 5.61054C10.1812 5.5106 10.2311 5.39225 10.2311 5.25549V4.24559ZM1.15088 16.8694C0.867126 16.8694 0.628034 16.7694 0.433608 16.5695C0.239181 16.3697 0.141968 16.133 0.141968 15.8595V1.72084C0.141968 1.44732 0.239181 1.21063 0.433608 1.01075C0.628034 0.810876 0.867126 0.710938 1.15088 0.710938C1.43464 0.710938 1.67373 0.810876 1.86816 1.01075C2.06259 1.21063 2.1598 1.44732 2.1598 1.72084V15.8595C2.1598 16.1435 2.06259 16.3828 1.86816 16.5774C1.67373 16.772 1.43464 16.8694 1.15088 16.8694Z" fill="#FFB174"/>
</g>
<defs>
<clipPath id="clip0">
<rect width="16.1584" height="16.1584" fill="white" transform="translate(0.138672 0.710938)"/>
</clipPath>
</defs>
</svg>
