<svg width="31" height="26" viewBox="0 0 31 26" fill="none" xmlns="http://www.w3.org/2000/svg">
<path d="M25.6719 3.25H5.32817C3.81433 3.25 2.58337 4.22175 2.58337 5.41667V20.5833C2.58337 21.7782 3.81433 22.75 5.32817 22.75H25.6719C27.1857 22.75 28.4167 21.7782 28.4167 20.5833V5.41667C28.4167 4.22175 27.1857 3.25 25.6719 3.25ZM25.6719 20.5833H5.32817C5.25454 20.5833 5.20417 20.566 5.18221 20.566C5.17317 20.566 5.168 20.5682 5.16671 20.5747L5.15121 5.4665C5.16025 5.45567 5.21837 5.41667 5.32817 5.41667H25.6719C25.774 5.41775 25.8295 5.447 25.8334 5.42533L25.8489 20.5335C25.8398 20.5443 25.7817 20.5833 25.6719 20.5833Z" fill="#D0D2D3"/>
<path d="M7.75 7.58203H15.5V14.082H7.75V7.58203ZM16.7917 16.2487H7.75V18.4154H23.25V16.2487H18.0833H16.7917ZM18.0833 11.9154H23.25V14.082H18.0833V11.9154ZM18.0833 7.58203H23.25V9.7487H18.0833V7.58203Z" fill="#D0D2D3"/>
</svg>
