<svg width="30" height="32" viewBox="0 0 30 32" fill="none" xmlns="http://www.w3.org/2000/svg">
<path d="M14.9021 31.9995C15.5608 31.9855 16.1929 31.757 16.6866 31.3545C17.1803 30.9519 17.5038 30.4012 17.5998 29.7998H12.0999C12.1986 30.4176 12.5373 30.9812 13.0527 31.3858C13.5682 31.7905 14.2254 32.0085 14.9021 31.9995Z" fill="#fff"/>
<path d="M29.6997 25.935L29.3609 25.6409C28.3995 24.7985 27.5581 23.8323 26.8593 22.7687C26.0961 21.3007 25.6387 19.6977 25.5138 18.0535V13.2109C25.5098 12.6227 25.4565 12.0358 25.3544 11.4562C23.6662 11.1149 22.1498 10.2103 21.0619 8.89548C19.974 7.58069 19.3814 5.93651 19.3845 4.24131V3.62373C18.344 3.12005 17.226 2.78883 16.0757 2.64345V1.40829C16.0757 1.06121 15.9355 0.728338 15.686 0.482913C15.4365 0.237488 15.0981 0.0996094 14.7452 0.0996094C14.3923 0.0996094 14.0539 0.237488 13.8044 0.482913C13.5549 0.728338 13.4147 1.06121 13.4147 1.40829V2.69246C10.8391 3.04983 8.48189 4.31164 6.77829 6.24494C5.07468 8.17825 4.1397 10.6525 4.14595 13.2109V18.0535C4.02113 19.6977 3.56369 21.3007 2.80049 22.7687C2.11369 23.8297 1.28579 24.7957 0.338796 25.6409L-6.10352e-05 25.935V28.6994H29.6997V25.935Z" fill="#fff"/>
</svg>
