<svg width="21" height="21" viewBox="0 0 21 21" fill="none" xmlns="http://www.w3.org/2000/svg">
<g clip-path="url(#clip0)">
<path d="M20.7229 18.009L16.7797 14.0658C16.6017 13.8879 16.3605 13.789 16.1074 13.789H15.4627C16.5543 12.3929 17.2029 10.6368 17.2029 8.72652C17.2029 4.18216 13.5208 0.5 8.9764 0.5C4.43204 0.5 0.749878 4.18216 0.749878 8.72652C0.749878 13.2709 4.43204 16.953 8.9764 16.953C10.8867 16.953 12.6427 16.3044 14.0389 15.2128V15.8575C14.0389 16.1106 14.1377 16.3519 14.3157 16.5298L18.2589 20.473C18.6307 20.8448 19.2319 20.8448 19.5997 20.473L20.719 19.3538C21.0907 18.982 21.0907 18.3808 20.7229 18.009ZM8.9764 13.789C6.18017 13.789 3.91392 11.5267 3.91392 8.72652C3.91392 5.93029 6.17622 3.66405 8.9764 3.66405C11.7726 3.66405 14.0389 5.92634 14.0389 8.72652C14.0389 11.5227 11.7766 13.789 8.9764 13.789Z" fill="#1B5A7A"/>
</g>
<defs>
<clipPath id="clip0">
<rect width="20.2499" height="20.2499" fill="white" transform="translate(0.749878 0.5)"/>
</clipPath>
</defs>
</svg>
