<svg width="18" height="18" viewBox="0 0 18 18" fill="none" xmlns="http://www.w3.org/2000/svg">
<path d="M9.21784 0.889648C4.57735 0.889648 0.802002 4.665 0.802002 9.30549V12.7922C0.802002 13.654 1.5569 14.355 2.48517 14.355H3.32676C3.54996 14.355 3.76402 14.2663 3.92184 14.1085C4.07967 13.9507 4.16834 13.7366 4.16834 13.5134V9.18515C4.16834 8.96194 4.07967 8.74788 3.92184 8.59005C3.76402 8.43223 3.54996 8.34356 3.32676 8.34356H2.5626C3.03052 5.08663 5.83299 2.57282 9.21784 2.57282C12.6027 2.57282 15.4052 5.08663 15.8731 8.34356H15.1089C14.8857 8.34356 14.6717 8.43223 14.5138 8.59005C14.356 8.74788 14.2674 8.96194 14.2674 9.18515V14.355C14.2674 15.2833 13.5125 16.0382 12.5842 16.0382H10.901V15.1966H7.53468V17.7213H12.5842C14.4407 17.7213 15.9505 16.2115 15.9505 14.355C16.8788 14.355 17.6337 13.654 17.6337 12.7922V9.30549C17.6337 4.665 13.8583 0.889648 9.21784 0.889648Z" fill="#FFB174"/>
</svg>
