<svg width="21" height="21" viewBox="0 0 21 21" fill="none" xmlns="http://www.w3.org/2000/svg">
<g clip-path="url(#clip0)">
<path fill-rule="evenodd" clip-rule="evenodd" d="M8.95529 18.1973C8.95529 18.1973 7.69291 18.1973 7.69291 16.935C7.69291 15.6726 8.95529 11.8855 14.0048 11.8855C19.0543 11.8855 20.3167 15.6726 20.3167 16.935C20.3167 18.1973 19.0543 18.1973 19.0543 18.1973H8.95529ZM14.0048 10.6231C15.0092 10.6231 15.9725 10.2241 16.6827 9.51386C17.3929 8.80364 17.7919 7.84037 17.7919 6.83596C17.7919 5.83155 17.3929 4.86828 16.6827 4.15805C15.9725 3.44783 15.0092 3.04883 14.0048 3.04883C13.0004 3.04883 12.0371 3.44783 11.3269 4.15805C10.6167 4.86828 10.2177 5.83155 10.2177 6.83596C10.2177 7.84037 10.6167 8.80364 11.3269 9.51386C12.0371 10.2241 13.0004 10.6231 14.0048 10.6231ZM6.70321 18.1973C6.51607 17.8032 6.42274 17.3712 6.43053 16.935C6.43053 15.2244 7.28895 13.4634 8.8745 12.2389C8.0831 11.9951 7.25859 11.8758 6.43053 11.8855C1.38103 11.8855 0.118652 15.6726 0.118652 16.935C0.118652 18.1973 1.38103 18.1973 1.38103 18.1973H6.70321ZM5.79935 10.6231C6.63635 10.6231 7.43908 10.2906 8.03093 9.69873C8.62279 9.10688 8.95529 8.30415 8.95529 7.46714C8.95529 6.63014 8.62279 5.82741 8.03093 5.23556C7.43908 4.6437 6.63635 4.3112 5.79935 4.3112C4.96234 4.3112 4.15961 4.6437 3.56776 5.23556C2.97591 5.82741 2.64341 6.63014 2.64341 7.46714C2.64341 8.30415 2.97591 9.10688 3.56776 9.69873C4.15961 10.2906 4.96234 10.6231 5.79935 10.6231Z" fill="#FFB174"/>
</g>
<defs>
<clipPath id="clip0">
<rect width="20.198" height="20.198" fill="white" transform="translate(0.118652 0.524414)"/>
</clipPath>
</defs>
</svg>
