<svg width="34" height="33" viewBox="0 0 34 33" fill="none" xmlns="http://www.w3.org/2000/svg">
<g clip-path="url(#clip0)">
<path d="M17.4494 0.514648C8.33455 0.514648 0.949524 7.66895 0.949524 16.499C0.949524 25.3291 8.33455 32.4834 17.4494 32.4834C26.5643 32.4834 33.9493 25.3291 33.9493 16.499C33.9493 7.66895 26.5643 0.514648 17.4494 0.514648ZM17.4494 6.70215C20.6828 6.70215 23.3042 9.2416 23.3042 12.374C23.3042 15.5064 20.6828 18.0459 17.4494 18.0459C14.216 18.0459 11.5946 15.5064 11.5946 12.374C11.5946 9.2416 14.216 6.70215 17.4494 6.70215ZM17.4494 28.874C13.544 28.874 10.0444 27.1596 7.7025 24.4783C8.95329 22.1967 11.4017 20.624 14.2559 20.624C14.4156 20.624 14.5752 20.6498 14.7283 20.6949C15.5932 20.9656 16.498 21.1396 17.4494 21.1396C18.4008 21.1396 19.3123 20.9656 20.1705 20.6949C20.3236 20.6498 20.4832 20.624 20.6429 20.624C23.4971 20.624 25.9455 22.1967 27.1963 24.4783C24.8544 27.1596 21.3548 28.874 17.4494 28.874Z" fill="#fff"/>
</g>
<defs>
<clipPath id="clip0">
<rect width="32.9998" height="33" fill="white" transform="translate(0.949463)"/>
</clipPath>
</defs>
</svg>
