<svg width="14" height="12" viewBox="0 0 14 12" fill="none" xmlns="http://www.w3.org/2000/svg">
<path d="M4.42172 6.53377H6.85174V8.61492C6.85174 8.67517 6.90929 8.72446 6.97963 8.72446H7.747C7.81735 8.72446 7.8749 8.67517 7.8749 8.61492V6.53377H10.3049C10.3753 6.53377 10.4328 6.48447 10.4328 6.42423V5.76702C10.4328 5.70678 10.3753 5.65749 10.3049 5.65749H7.8749V3.57633C7.8749 3.51609 7.81735 3.4668 7.747 3.4668H6.97963C6.90929 3.4668 6.85174 3.51609 6.85174 3.57633V5.65749H4.42172C4.35138 5.65749 4.29382 5.70678 4.29382 5.76702V6.42423C4.29382 6.48447 4.35138 6.53377 4.42172 6.53377Z" fill="#D0D2D3"/>
<path d="M13.2466 0.619141H1.48024C1.19727 0.619141 0.968658 0.814934 0.968658 1.05728V11.1345C0.968658 11.3768 1.19727 11.5726 1.48024 11.5726H13.2466C13.5296 11.5726 13.7582 11.3768 13.7582 11.1345V1.05728C13.7582 0.814934 13.5296 0.619141 13.2466 0.619141ZM12.6072 10.5868H2.11972V1.60495H12.6072V10.5868Z" fill="#D0D2D3"/>
</svg>
