<svg width="17" height="16" viewBox="0 0 17 16" fill="none" xmlns="http://www.w3.org/2000/svg">
<path d="M9.26694 0V1.60624H15.7659C16.0452 1.60624 16.2716 1.83265 16.2716 2.11197V13.1676C16.2716 13.4469 16.0452 13.6733 15.7659 13.6733H9.26694V15.4144L0 13.7744V1.63713L9.26694 0ZM6.19187 6.74428C6.22304 6.25047 6.10581 5.7499 5.77364 5.42974C5.37835 5.04866 5.11483 4.98193 3.98475 5.04043L3.06674 5.08798V10.2731H4.00013V8.4731C5.72215 8.62008 6.12132 7.62675 6.19187 6.74428ZM5.11909 6.74428C5.07031 7.58684 4.68008 7.55137 4.0001 7.53974V5.97303C4.76433 5.94608 5.09421 6.05076 5.11909 6.74428ZM15.0138 6.73973L13.2624 8.56653L11.4315 6.73973H12.8004V4.33968H9.26694V9.03176L10.6739 7.64722L12.767 9.74183C12.767 9.74183 10.7185 11.7399 10.6699 11.7399C10.6214 11.7399 9.26694 10.4482 9.26694 10.4482V13.1399H15.7338V2.13958H9.26694V3.47293H13.6671V6.7397L15.0138 6.73973Z" fill="#1B5A7A"/>
</svg>
